<svg width="13" height="13" viewBox="0 0 13 13" fill="none" xmlns="http://www.w3.org/2000/svg">
<path d="M9.09514 0.200401C9.36234 -0.0668002 9.79556 -0.0668002 10.0628 0.200401L12.7996 2.93724C13.0668 3.20444 13.0668 3.63766 12.7996 3.90486L3.90486 12.7996C3.77655 12.9279 3.60252 13 3.42105 13H0.684211C0.306331 13 0 12.6937 0 12.3158V9.57895C0 9.39748 0.0720862 9.22345 0.200401 9.09514L7.04236 2.25317L9.09514 0.200401ZM7.52632 3.70446L1.36842 9.86236V11.6316H3.13764L9.29554 5.47368L7.52632 3.70446ZM10.2632 4.50606L11.3482 3.42105L9.57895 1.65183L8.49394 2.73684L10.2632 4.50606Z" fill="#DADEE3"/>
</svg>
