<svg width="28" height="27" fill="none" xmlns="http://www.w3.org/2000/svg"><path opacity=".7" d="M14.1514 10.2853c-.6358.0003-1.2572.189-1.7857.5424s-.9403.8555-1.1835 1.4429c-.2431.5875-.3066 1.2338-.1824 1.8573.1242.6235.4304 1.1962.8801 1.6457.4496.4494 1.0224.7555 1.646.8794.6235.1239 1.2698.0602 1.8572-.1831.5873-.2434 1.0893-.6554 1.4425-1.184.3532-.5287.5417-1.1501.5417-1.7859-.0007-.8526-.3397-1.6701-.9427-2.2728-.603-.6028-1.4206-.9416-2.2732-.9419zm7.516-2.47097c-.1637-.41474-.4108-.79143-.7261-1.10669-.3152-.31527-.6919-.5624-1.1067-.72605-1.2656-.49963-4.279-.38753-5.6832-.38753-1.4043 0-4.41465-.11631-5.68389.38753-.41474.16365-.79143.41078-1.1067.72605-.31527.31526-.5624.69195-.72605 1.10669-.49902 1.26563-.38752 4.28207-.38752 5.68507 0 1.403-.1115 4.4158.38993 5.6857.16365.4147.41078.7914.72605 1.1067.31527.3152.69196.5624 1.1067.726 1.26562.4996 4.27898.3875 5.68388.3875 1.4048 0 4.414.1164 5.6832-.3875.4148-.1636.7915-.4108 1.1067-.726.3153-.3153.5624-.692.7261-1.1067.5032-1.2657.3875-4.2821.3875-5.6851 0-1.403.1157-4.41522-.3875-5.68507l-.0024-.0006zM14.1514 18.442c-.9775 0-1.9329-.2899-2.7456-.8329-.8127-.543-1.44617-1.3149-1.82021-2.2179-.37405-.903-.47191-1.8967-.28123-2.8553.19069-.9587.66136-1.8393 1.35254-2.5304.6911-.69114 1.5717-1.16182 2.5303-1.35251.9587-.19068 1.9523-.09282 2.8554.28123.903.37405 1.6748 1.00747 2.2179 1.82018.543.8127.8328 1.7682.8328 2.7456.0008.6492-.1265 1.2922-.3745 1.8921-.2481.6-.6121 1.1451-1.0712 1.6042-.459.459-1.0041.823-1.6041 1.0711-.5999.2481-1.2429.3754-1.8921.3746zm5.1456-8.93776c-.2281.00012-.4512-.06743-.641-.19411-.1898-.12668-.3377-.30679-.4251-.51756-.0874-.21077-.1103-.44273-.0659-.66653.0444-.2238.1543-.4294.3156-.59078.1613-.16138.3668-.27131.5906-.31586.2238-.04456.4557-.02175.6665.06554s.391.23514.5178.42485c.1268.18971.1945.41275.1945.64092.0006.15153-.0287.30168-.0862.44186-.0575.14018-.1422.26762-.2491.37501-.1069.1074-.2339.19263-.3738.25082-.1399.05818-.2899.08817-.4415.08825l-.0024-.00241zM24.7585 0H3.54422c-.76723 0-1.50304.304782-2.04555.847298C.956149 1.38981.651367 2.12562.651367 2.89286V24.1071c0 .7673.304782 1.5031.847303 2.0456.54251.5425 1.27832.8473 2.04555.8473H24.7585c.7672 0 1.5031-.3048 2.0456-.8473.5425-.5425.8473-1.2783.8473-2.0456V2.89286c0-.76724-.3048-1.50305-.8473-2.045562C26.2616.304782 25.5257 0 24.7585 0zm-1.0318 17.4777c-.0777 1.5446-.4303 2.9133-1.5579 4.0379-1.1276 1.1246-2.4951 1.4844-4.0379 1.5579-1.5917.0898-6.3637.0898-7.9554 0-1.54467-.0777-2.90853-.4309-4.03795-1.5579-1.12942-1.127-1.4844-2.4963-1.55792-4.0379-.0898-1.5923-.0898-6.3649 0-7.95538.07774-1.54466.42609-2.91335 1.55792-4.03794 1.13183-1.1246 2.49931-1.48018 4.03795-1.55371 1.5917-.0898 6.3637-.0898 7.9554 0 1.5446.07775 2.9127.43091 4.0379 1.55792 1.1252 1.12701 1.4844 2.4963 1.5579 4.04096.0898 1.58625.0898 6.35465 0 7.94815z" fill="#FAFAFA"/></svg>