<svg width="28" height="27" fill="none" xmlns="http://www.w3.org/2000/svg"><path opacity=".7" d="M24.41 0H3.194A2.894 2.894 0 00.302 2.893v21.214A2.894 2.894 0 003.195 27H24.41a2.894 2.894 0 002.893-2.893V2.893A2.894 2.894 0 0024.41 0zm-2.948 9.57c.012.17.012.344.012.513 0 5.225-3.977 11.246-11.246 11.246-2.242 0-4.32-.651-6.069-1.772.32.036.627.048.953.048 1.85 0 3.55-.627 4.905-1.687a3.958 3.958 0 01-3.694-2.743c.609.09 1.157.09 1.784-.072a3.953 3.953 0 01-3.164-3.881v-.048a3.95 3.95 0 001.784.5 3.944 3.944 0 01-1.76-3.29c0-.736.193-1.411.536-1.996a11.224 11.224 0 008.149 4.135c-.56-2.682 1.446-4.858 3.857-4.858 1.139 0 2.163.476 2.886 1.248a7.746 7.746 0 002.508-.953 3.943 3.943 0 01-1.736 2.176 7.866 7.866 0 002.278-.615 8.32 8.32 0 01-1.983 2.05z" fill="#FAFAFA"/></svg>